<svg version="1.0" xmlns="http://www.w3.org/2000/svg" width="933.333" height="933.333" viewBox="0 0 700 700"><path d="M352.5 2.2c1.5 6.7 2.5 11.8 3.1 16.3.3 2.7.9 7.1 1.3 9.6 3.3 20.8-5.1 43.7-21.5 59-8.4 7.8-18.8 13.6-40.3 22.4-21.9 9-35.5 16.8-45.3 26.1-18.2 17.3-26.3 35-26.2 57.4.1 10.6 2.4 16.7 8.6 22.9 2.8 2.8 4.9 5.2 4.7 5.4-.2.1-3.1 2-6.4 4.1-8.8 5.7-28.8 22-37.7 30.7-15.8 15.5-18 31.6-5.2 38.4l4 2.1-5.8 6.3c-3.2 3.6-6.2 7.9-6.7 9.9-.6 1.9-.8 8.7-.6 15.1.3 8.2-.1 13.5-1.2 18.1-2.7 11.4-2.7 13.3 0 18.6 3.3 6.4 8.4 11.6 16 16.4 3.4 2.2 6.7 4.4 7.3 4.9 2 1.6 2.4 8.8 3.9 60.6.8 28.9 1.6 46.8 2.2 50.5.8 5.5 2.9 8.7 8.7 12.9 9.7 7.2 16.9 17.4 19.5 27.7.5 2.2 1.7 6.8 2.6 10.4l2 8c1 3.9 9.6 44.9 10.1 48 .3 1.9 1.9 9.6 3.4 17 1.6 7.4 3.1 14.8 3.4 16.4.3 1.6 1 5.2 1.6 8 1.2 5.7 1 5.2 3.9 20.1 1.2 6.2 2.9 11.8 3.9 12.9 8.4 9.6 18.2 14.9 33.8 18.1 11.8 2.4 20.3 3 43.9 3 38.5-.1 57-4.7 70.1-17.3 5.7-5.6 4.7-2.2 11.9-39.2 2.6-12.9 4.9-24.4 5.1-25.5.2-1.1.7-3.4 1-5 .3-1.7 2.1-10.7 4.1-20 1.9-9.4 3.9-18.8 4.3-21 2.2-10.6 7.2-29.8 9.5-36.5 3.2-9.4 6.3-14.2 13.4-20.5 8.8-8 13.1-12.8 13.2-15 .1-1.1.2-3.4.4-5 .4-4.6 1.5-27.2 2-45 .8-25.1 1.6-48.6 2-53.5.1-2.5.3-6.1.4-8.1.1-3.1.8-4 6.6-8.3 16.9-12.4 22.7-25.3 18.9-41.6-3.4-14.2-12.8-26.6-32.8-43.3l-2.9-2.4 2.5-3.4c14.7-19.4 13-43.1-4.7-65-4.9-6-16.9-16.6-23.4-20.7-6.3-3.9-6.4-4.1-2.6-8.4 18.1-21.2 18.4-80.4.5-115.1-2.2-4.4-6.6-11.6-9.7-16C425.9 53 405.8 33 395 25.4 381.1 15.7 354.9 0 352.5 0c-.3 0-.3 1 0 2.2zm39 48.6c14.3 14 19.8 20.2 25.2 28.1 22.4 32.7 26.1 74.3 9 101.1-6.1 9.6-23.4 26.3-35.2 34.1-40.6 26.6-111.4 59.4-150.7 69.8-14.2 3.8-15.5 4-25.5 4.8-10.4.7-16.5-.8-19.5-4.9-5.4-7.7-2.5-11.1 27.1-31.8 6.7-4.7 13.2-9.3 14.4-10.2 1.2-.9 15.7-11.8 32.2-24.2 40.9-30.7 39.9-29.7 23.6-21.7-29.3 14.4-43.2 15.7-48.5 4.7-6-12.7.7-32.9 15.9-48.1 9-9.1 14.4-12.1 43-24 34.4-14.4 46.3-22.5 57.6-39 8.5-12.5 16.9-32.7 18.4-44.3.4-2.8 1-5.2 1.4-5.2.4 0 5.6 4.9 11.6 10.8zm41 167.9c11.5 5.9 25 18.6 29.5 27.7 6.9 13.7 2.4 27.2-15 44.7-12.4 12.5-24 20.9-42.5 31-18.2 9.9-31.9 15.8-52 22.2-9.9 3.2-28 8-34.5 9.1-1.4.2-3.6.7-5 1-1.4.3-4.1.8-6 1.1-1.9.2-4.6.7-6 .9-5.5.9-12.9 1.8-25.5 3.1-10.9 1-35 2.2-48.9 2.4-5.5.1-9.7.3-9.5.5.9.9 22.4 1.9 40.4 1.9 15.5 0 38-.8 50.8-1.8 24.5-1.9 66-12.2 90.2-22.3 11.2-4.7 30.4-15 41.3-22.2 6.8-4.5 13.8-8.8 15.7-9.6 3.3-1.3 3.5-1.3 9.4 3.2 8 6 20.5 19.6 23.3 25.3 2.8 5.6 2.9 14 .3 19.4-2.5 5.3-8.8 11.1-15.9 14.5-5.7 2.8-19.7 7.6-24.8 8.6-1.3.2-7 1.3-12.8 2.4-5.8 1.2-12.7 2.3-15.5 2.6-2.7.3-6.6.8-8.5 1.1-18.6 2.6-27.5 3-62 3-30.4 0-42-.4-57.5-2-11.3-1.2-19.3-2.1-25-3-1.6-.3-4.8-.7-7-1.1-27.3-4-58.3-14.6-67.1-23-4.5-4.2-5.1-7.4-2.9-15.7 1.3-5 1.8-10.1 1.6-17.3l-.2-10.3 3.6-3.9c5.9-6.6 17.1-11 49.4-19.7 9.6-2.6 17.9-4.8 18.5-4.9.6-.1 3.8-1 7.1-2s7-2 8.1-2.2c4.9-.9 30.8-9.9 41.9-14.6 17.6-7.4 53.3-25.3 64.7-32.5 2.1-1.2 4-2.3 4.3-2.3.2 0 5.1-3 10.7-6.6 14.4-9.3 13.9-9 18.8-10.7 4.8-1.6 8.3-1.1 14.5 2zM234.9 397.6c4.7 1.4 9.2 2.7 10.1 2.9.8.2 3.3.8 5.5 1.3 6 1.6 18.4 4 24 4.7 2.8.4 6.1.8 7.5 1.1 15 2.5 86.8 2.5 111.7-.1 2.7-.3 6.6-.7 8.8-1 2.2-.3 6.3-.7 9-1 2.8-.3 6.1-.8 7.5-1 1.4-.3 4.8-.7 7.5-1.1 2.8-.3 5.9-.8 7-1 1.1-.3 3.6-.7 5.5-.9 1.9-.3 4.6-.8 5.8-1.1 1.3-.3 4.3-.7 6.5-1 2.3-.3 4.7-.7 5.4-.9 1.7-.5 2 5.2 1.7 33-.3 32.3-1 40.1-4.5 53.5-2.3 8.5-5.9 14.7-9.4 16-4.8 1.8-20.1 4.2-35.5 5.5-3.6.3-8.7.7-11.5 1-26.9 2.3-93.7 2.4-115.5.1-1.9-.3-6.6-.7-10.5-1-3.8-.3-8.1-.8-9.5-1-1.4-.3-4.3-.7-6.5-1.1-2.2-.3-4.7-.7-5.5-1-.8-.2-2.8-.6-4.3-.9-5.7-1-12.6-3.7-15-6-5.5-5.1-7-18-7-61.6 0-25.6.3-38.1 1-39.3.6-1 .8-1 10.2 1.9zm47.6 126.9c12.1 1.4 22.4 2.7 22.9 2.8.5.2-1.5 3-4.5 6.4-7 7.8-17 21.8-21.7 30.5-4.9 8.9-6.5 9.7-13 6.4-6-3.1-6-3-6.7-9.2-.4-2.7-1-6.7-1.5-8.9s-1.2-6.5-1.5-9.5c-.4-3-.8-5.7-1-6-.2-.3-.6-2.5-1-4.9-.3-2.4-1-5.4-1.5-6.7-1.1-2.8.7-4.2 4.8-3.7 1.5.1 12.6 1.4 24.7 2.8zm148-.8c-.3 1.6-.7 3.7-.9 4.8-.2 1.1-.7 4.2-1 6.8-.4 2.7-.9 5.9-1.2 7-.2 1.2-.6 3.8-.9 5.7-.2 1.9-1.6 10.7-2.9 19.5-1.4 8.8-2.8 17.8-3 20-.9 7.2-5.5 35.8-7.6 47-4.8 26.1-8.1 35-15.2 40.8-5.8 4.7-15.6 8.7-24.8 10.2-1.9.3-5.9.9-8.8 1.4-8.9 1.4-41.1 0-44.1-1.9-1.8-1-.7-3 8.8-14.7 10.9-13.8 17.2-20.3 20-20.8 1.6-.3 6.4 1.5 13.9 5 14.4 6.9 18.2 8.1 21 6.6 1.7-.9 1.9-1.6 1.2-4-1.2-4.4-3.7-7.2-11-12.7-7.8-6-11.4-9.2-12.8-12-1.3-2.5.6-6.5 7.8-16.4 5.4-7.5 15.8-23.1 21.1-31.8l3.6-5.9 6.1.8c10.4 1.4 13.6 1.6 15.5.7 1.6-.8 1.6-1.1.2-3.8-.8-1.6-3.3-5.5-5.5-8.6-2.2-3.2-4-6.2-4-6.7 0-1.9 11.9-24.6 16-30.7 3.3-4.8 7.3-9 8.7-9 .2 0 .1 1.2-.2 2.7zm-31.7 10c-4.7 7.2-13.2 15.3-15.9 15.3-3.8 0-27.9-15.3-26.4-16.8.3-.3 2.7-.7 5.3-.8 15-.5 36.3-2.2 37.1-3 .3-.2.9 0 1.4.5.7.7.1 2.3-1.5 4.8zm-65.3-3.3c3.1 1.3 6.4 3.5 12.9 8.6 7.7 6 27.9 24.1 29 25.9.6.8-1.2 4.1-10.7 19.6-3.7 6-19.2 29.3-20.5 30.7-.8 1-2 1.8-2.7 1.8-.6 0-6.2-3.6-12.5-8s-12.2-8.5-13-9c-.8-.5-4-2.7-7.1-4.9-3.1-2.1-6-4-6.5-4.2-.5-.2-3.2-1.9-6.1-3.8-3.6-2.4-4.9-3.9-4.5-5 .8-2.2 27.5-46.3 30.3-50 2.6-3.5 5.8-4 11.4-1.7zm-56.8 76.2c16.2 5.5 47.3 22.1 52.7 28.3 1.9 2.1 1.9 2.2 0 6.9-1.6 3.7-11.5 20.5-18.4 31.2-.6.8-1.4 2.5-1.9 3.6-1.2 2.7-4.9 5.4-7.3 5.4-3.1 0-13-3.8-17-6.6-5.6-3.9-9-11.7-12.2-28.4-.2-1.4-.9-4.8-1.5-7.5-.5-2.8-1.2-6.8-1.5-9-.4-2.3-.9-5.2-1.1-6.5-.3-1.4-.8-6.2-1.2-10.8l-.6-8.2h2.6c1.5 0 4.8.7 7.4 1.6z"/></svg>