<?xml version="1.0" standalone="no"?>
<!DOCTYPE svg PUBLIC "-//W3C//DTD SVG 20010904//EN"
 "http://www.w3.org/TR/2001/REC-SVG-20010904/DTD/svg10.dtd">
<svg version="1.0" xmlns="http://www.w3.org/2000/svg"
 width="700.000000pt" height="700.000000pt" viewBox="0 0 700.000000 700.000000"
 preserveAspectRatio="xMidYMid meet">
<metadata>
Created by potrace 1.14, written by Peter Selinger 2001-2017
</metadata>
<g transform="translate(0.000000,700.000000) scale(0.100000,-0.100000)"
fill="#000000" stroke="none">
<path d="M3525 6978 c15 -67 25 -118 31 -163 3 -27 9 -71 13 -96 33 -208 -51
-437 -215 -590 -84 -78 -188 -136 -403 -224 -219 -90 -355 -168 -453 -261
-182 -173 -263 -350 -262 -574 1 -106 24 -167 86 -229 28 -28 49 -52 47 -54
-2 -1 -31 -20 -64 -41 -88 -57 -288 -220 -377 -307 -158 -155 -180 -316 -52
-384 l40 -21 -58 -63 c-32 -36 -62 -79 -67 -99 -6 -19 -8 -87 -6 -151 3 -82
-1 -135 -12 -181 -27 -114 -27 -133 0 -186 33 -64 84 -116 160 -164 34 -22 67
-44 73 -49 20 -16 24 -88 39 -606 8 -289 16 -468 22 -505 8 -55 29 -87 87
-129 97 -72 169 -174 195 -277 5 -22 17 -68 26 -104 9 -36 18 -72 20 -80 10
-39 96 -449 101 -480 3 -19 19 -96 34 -170 16 -74 31 -148 34 -164 3 -16 10
-52 16 -80 12 -57 10 -52 39 -201 12 -62 29 -118 39 -129 84 -96 182 -149 338
-181 118 -24 203 -30 439 -30 385 1 570 47 701 173 57 56 47 22 119 392 26
129 49 244 51 255 2 11 7 34 10 50 3 17 21 107 41 200 19 94 39 188 43 210 22
106 72 298 95 365 32 94 63 142 134 205 88 80 131 128 132 150 1 11 2 34 4 50
4 46 15 272 20 450 8 251 16 486 20 535 1 25 3 61 4 81 1 31 8 40 66 83 169
124 227 253 189 416 -34 142 -128 266 -328 433 l-29 24 25 34 c147 194 130
431 -47 650 -49 60 -169 166 -234 207 -63 39 -64 41 -26 84 181 212 184 804 5
1151 -22 44 -66 116 -97 160 -74 107 -275 307 -383 383 -139 97 -401 254 -425
254 -3 0 -3 -10 0 -22z m390 -486 c143 -140 198 -202 252 -281 224 -327 261
-743 90 -1011 -61 -96 -234 -263 -352 -341 -406 -266 -1114 -594 -1507 -698
-142 -38 -155 -40 -255 -48 -104 -7 -165 8 -195 49 -54 77 -25 111 271 318 67
47 132 93 144 102 12 9 157 118 322 242 409 307 399 297 236 217 -293 -144
-432 -157 -485 -47 -60 127 7 329 159 481 90 91 144 121 430 240 344 144 463
225 576 390 85 125 169 327 184 443 4 28 10 52 14 52 4 0 56 -49 116 -108z
m410 -1679 c115 -59 250 -186 295 -277 69 -137 24 -272 -150 -447 -124 -125
-240 -209 -425 -310 -182 -99 -319 -158 -520 -222 -99 -32 -280 -80 -345 -91
-14 -2 -36 -7 -50 -10 -14 -3 -41 -8 -60 -11 -19 -2 -46 -7 -60 -9 -55 -9
-129 -18 -255 -31 -109 -10 -350 -22 -489 -24 -55 -1 -97 -3 -95 -5 9 -9 224
-19 404 -19 155 0 380 8 508 18 245 19 660 122 902 223 112 47 304 150 413
222 68 45 138 88 157 96 33 13 35 13 94 -32 80 -60 205 -196 233 -253 28 -56
29 -140 3 -194 -25 -53 -88 -111 -159 -145 -57 -28 -197 -76 -248 -86 -13 -2
-70 -13 -128 -24 -58 -12 -127 -23 -155 -26 -27 -3 -66 -8 -85 -11 -186 -26
-275 -30 -620 -30 -304 0 -420 4 -575 20 -113 12 -193 21 -250 30 -16 3 -48 7
-70 11 -273 40 -583 146 -671 230 -45 42 -51 74 -29 157 13 50 18 101 16 173
l-2 103 36 39 c59 66 171 110 494 197 96 26 179 48 185 49 6 1 38 10 71 20 33
10 70 20 81 22 49 9 308 99 419 146 176 74 533 253 647 325 21 12 40 23 43 23
2 0 51 30 107 66 144 93 139 90 188 107 48 16 83 11 145 -20z m-1976 -1789
c47 -14 92 -27 101 -29 8 -2 33 -8 55 -13 60 -16 184 -40 240 -47 28 -4 61 -8
75 -11 150 -25 868 -25 1117 1 27 3 66 7 88 10 22 3 63 7 90 10 28 3 61 8 75
10 14 3 48 7 75 11 28 3 59 8 70 10 11 3 36 7 55 9 19 3 46 8 58 11 13 3 43 7
65 10 23 3 47 7 54 9 17 5 20 -52 17 -330 -3 -323 -10 -401 -45 -535 -23 -85
-59 -147 -94 -160 -48 -18 -201 -42 -355 -55 -36 -3 -87 -7 -115 -10 -269 -23
-937 -24 -1155 -1 -19 3 -66 7 -105 10 -38 3 -81 8 -95 10 -14 3 -43 7 -65 11
-22 3 -47 7 -55 10 -8 2 -28 6 -43 9 -57 10 -126 37 -150 60 -55 51 -70 180
-70 616 0 256 3 381 10 393 6 10 8 10 102 -19z m476 -1269 c121 -14 224 -27
229 -28 5 -2 -15 -30 -45 -64 -70 -78 -170 -218 -217 -305 -49 -89 -65 -97
-130 -64 -60 31 -60 30 -67 92 -4 27 -10 67 -15 89 -5 22 -12 65 -15 95 -4 30
-8 57 -10 60 -2 3 -6 25 -10 49 -3 24 -10 54 -15 67 -11 28 7 42 48 37 15 -1
126 -14 247 -28z m1480 8 c-3 -16 -7 -37 -9 -48 -2 -11 -7 -42 -10 -68 -4 -27
-9 -59 -12 -70 -2 -12 -6 -38 -9 -57 -2 -19 -16 -107 -29 -195 -14 -88 -28
-178 -30 -200 -9 -72 -55 -358 -76 -470 -48 -261 -81 -350 -152 -408 -58 -47
-156 -87 -248 -102 -19 -3 -59 -9 -88 -14 -89 -14 -411 0 -441 19 -18 10 -7
30 88 147 109 138 172 203 200 208 16 3 64 -15 139 -50 144 -69 182 -81 210
-66 17 9 19 16 12 40 -12 44 -37 72 -110 127 -78 60 -114 92 -128 120 -13 25
6 65 78 164 54 75 158 231 211 318 l36 59 61 -8 c104 -14 136 -16 155 -7 16 8
16 11 2 38 -8 16 -33 55 -55 86 -22 32 -40 62 -40 67 0 19 119 246 160 307 33
48 73 90 87 90 2 0 1 -12 -2 -27z m-317 -100 c-47 -72 -132 -153 -159 -153
-38 0 -279 153 -264 168 3 3 27 7 53 8 150 5 363 22 371 30 3 2 9 0 14 -5 7
-7 1 -23 -15 -48z m-653 33 c31 -13 64 -35 129 -86 77 -60 279 -241 290 -259
6 -8 -12 -41 -107 -196 -37 -60 -192 -293 -205 -307 -8 -10 -20 -18 -27 -18
-6 0 -62 36 -125 80 -63 44 -122 85 -130 90 -8 5 -40 27 -71 49 -31 21 -60 40
-65 42 -5 2 -32 19 -61 38 -36 24 -49 39 -45 50 8 22 275 463 303 500 26 35
58 40 114 17z m-568 -762 c162 -55 473 -221 527 -283 19 -21 19 -22 0 -69 -16
-37 -115 -205 -184 -312 -6 -8 -14 -25 -19 -36 -12 -27 -49 -54 -73 -54 -31 0
-130 38 -170 66 -56 39 -90 117 -122 284 -2 14 -9 48 -15 75 -5 28 -12 68 -15
90 -4 23 -9 52 -11 65 -3 14 -8 62 -12 108 l-6 82 26 0 c15 0 48 -7 74 -16z"/>
</g>
</svg>
