<svg xmlns="http://www.w3.org/2000/svg" aria-hidden="true" style="position:absolute;width:0;height:0;overflow:hidden"><defs><symbol id="icon-kropki-tablet" viewBox="0 0 356 32"><path fill="#f8d24e" d="M306.022 29.57c0 1.021-.832 1.849-1.858 1.849s-1.858-.828-1.858-1.849.832-1.849 1.858-1.849 1.858.828 1.858 1.849zM309.737 27.259c0 1.021-.832 1.849-1.858 1.849s-1.858-.828-1.858-1.849.832-1.849 1.858-1.849 1.858.828 1.858 1.849zM314.38 24.484c0 1.021-.832 1.849-1.858 1.849s-1.858-.828-1.858-1.849.832-1.849 1.858-1.849 1.858.828 1.858 1.849zM318.095 22.173c0 1.021-.832 1.849-1.858 1.849s-1.858-.828-1.858-1.849.832-1.849 1.858-1.849 1.858.828 1.858 1.849zM315.773 28.646c0 1.021-.832 1.849-1.858 1.849s-1.858-.828-1.858-1.849.832-1.849 1.858-1.849 1.858.828 1.858 1.849zM319.489 26.334c0 1.021-.832 1.849-1.858 1.849s-1.858-.828-1.858-1.849.832-1.849 1.858-1.849 1.858.828 1.858 1.849zM324.132 23.56c0 1.021-.832 1.849-1.858 1.849s-1.858-.828-1.858-1.849.832-1.849 1.858-1.849 1.858.828 1.858 1.849zM327.847 21.248c0 1.021-.832 1.849-1.858 1.849s-1.858-.828-1.858-1.849.832-1.849 1.858-1.849 1.858.828 1.858 1.849zM324.132 27.721c0 1.021-.832 1.849-1.858 1.849s-1.858-.828-1.858-1.849.832-1.849 1.858-1.849 1.858.828 1.858 1.849zM327.847 25.409c0 1.021-.832 1.849-1.858 1.849s-1.858-.828-1.858-1.849.832-1.849 1.858-1.849 1.858.828 1.858 1.849zM332.491 22.635c0 1.021-.832 1.849-1.858 1.849s-1.858-.828-1.858-1.849.832-1.849 1.858-1.849 1.858.828 1.858 1.849zM336.206 20.323c0 1.021-.832 1.849-1.858 1.849s-1.858-.828-1.858-1.849.832-1.849 1.858-1.849 1.858.828 1.858 1.849zM332.491 26.334c0 1.021-.832 1.849-1.858 1.849s-1.858-.828-1.858-1.849.832-1.849 1.858-1.849 1.858.828 1.858 1.849zM336.206 24.022c0 1.021-.832 1.849-1.858 1.849s-1.858-.828-1.858-1.849.832-1.849 1.858-1.849 1.858.828 1.858 1.849zM340.85 21.248c0 1.021-.832 1.849-1.858 1.849s-1.858-.828-1.858-1.849.832-1.849 1.858-1.849 1.858.828 1.858 1.849zM344.565 18.936c0 1.021-.832 1.849-1.858 1.849s-1.858-.828-1.858-1.849.832-1.849 1.858-1.849 1.858.828 1.858 1.849zM334.813 29.57c0 1.021-.832 1.849-1.858 1.849s-1.858-.828-1.858-1.849.832-1.849 1.858-1.849 1.858.828 1.858 1.849zM338.528 27.259c0 1.021-.832 1.849-1.858 1.849s-1.858-.828-1.858-1.849.832-1.849 1.858-1.849 1.858.828 1.858 1.849zM343.636 30.033c0 1.021-.832 1.849-1.858 1.849s-1.858-.828-1.858-1.849.832-1.849 1.858-1.849 1.858.828 1.858 1.849zM343.171 24.484c0 1.021-.832 1.849-1.858 1.849s-1.858-.828-1.858-1.849.832-1.849 1.858-1.849 1.858.828 1.858 1.849zM348.279 27.259c0 1.021-.832 1.849-1.858 1.849s-1.858-.828-1.858-1.849.832-1.849 1.858-1.849 1.858.828 1.858 1.849zM352.459 30.033c0 1.021-.832 1.849-1.858 1.849s-1.858-.828-1.858-1.849.832-1.849 1.858-1.849 1.858.828 1.858 1.849zM346.887 22.173c0 1.021-.832 1.849-1.858 1.849s-1.858-.828-1.858-1.849.832-1.849 1.858-1.849 1.858.828 1.858 1.849zM352.459 24.947c0 1.021-.832 1.849-1.858 1.849s-1.858-.828-1.858-1.849.832-1.849 1.858-1.849 1.858.828 1.858 1.849zM356.174 27.721c0 1.021-.832 1.849-1.858 1.849s-1.858-.828-1.858-1.849.832-1.849 1.858-1.849 1.858.828 1.858 1.849zM288.376 10.151c0 1.021-.832 1.849-1.858 1.849s-1.858-.828-1.858-1.849.832-1.849 1.858-1.849 1.858.828 1.858 1.849zM292.091 7.839c0 1.021-.832 1.849-1.858 1.849s-1.858-.828-1.858-1.849.832-1.849 1.858-1.849 1.858.828 1.858 1.849zM296.734 5.065c0 1.021-.832 1.849-1.858 1.849s-1.858-.828-1.858-1.849.832-1.849 1.858-1.849 1.858.828 1.858 1.849zM300.449 2.753c0 1.021-.832 1.849-1.858 1.849s-1.858-.828-1.858-1.849.832-1.849 1.858-1.849 1.858.828 1.858 1.849zM280.946 9.689c0 1.021-.832 1.849-1.858 1.849s-1.858-.828-1.858-1.849.832-1.849 1.858-1.849 1.858.828 1.858 1.849zM284.661 7.377c0 1.021-.832 1.849-1.858 1.849s-1.858-.828-1.858-1.849.832-1.849 1.858-1.849 1.858.828 1.858 1.849zM289.304 4.603c0 1.021-.832 1.849-1.858 1.849s-1.858-.828-1.858-1.849.832-1.849 1.858-1.849 1.858.828 1.858 1.849zM293.019 2.291c0 1.021-.832 1.849-1.858 1.849s-1.858-.828-1.858-1.849.832-1.849 1.858-1.849 1.858.828 1.858 1.849zM297.198 29.57c0 1.021-.832 1.849-1.858 1.849s-1.858-.828-1.858-1.849.832-1.849 1.858-1.849 1.858.828 1.858 1.849zM300.914 27.259c0 1.021-.832 1.849-1.858 1.849s-1.858-.828-1.858-1.849.832-1.849 1.858-1.849 1.858.828 1.858 1.849zM305.557 24.484c0 1.021-.832 1.849-1.858 1.849s-1.858-.828-1.858-1.849.832-1.849 1.858-1.849 1.858.828 1.858 1.849zM309.272 22.173c0 1.021-.832 1.849-1.858 1.849s-1.858-.828-1.858-1.849.832-1.849 1.858-1.849 1.858.828 1.858 1.849zM292.555 28.183c0 1.021-.832 1.849-1.858 1.849s-1.858-.828-1.858-1.849.832-1.849 1.858-1.849 1.858.828 1.858 1.849z" style="fill:var(--color1, #f8d24e)"/><path fill="#f8d24e" d="M296.27 25.872c0 1.021-.832 1.849-1.858 1.849s-1.858-.828-1.858-1.849.832-1.849 1.858-1.849 1.858.828 1.858 1.849zM300.914 23.097c0 1.021-.832 1.849-1.858 1.849s-1.858-.828-1.858-1.849.832-1.849 1.858-1.849 1.858.828 1.858 1.849zM304.628 20.785c0 1.021-.832 1.849-1.858 1.849s-1.858-.828-1.858-1.849.832-1.849 1.858-1.849 1.858.828 1.858 1.849zM294.413 21.71c0 1.021-.832 1.849-1.858 1.849s-1.858-.828-1.858-1.849.832-1.849 1.858-1.849 1.858.828 1.858 1.849zM298.127 19.398c0 1.021-.832 1.849-1.858 1.849s-1.858-.828-1.858-1.849.832-1.849 1.858-1.849 1.858.828 1.858 1.849zM302.771 16.624c0 1.021-.832 1.849-1.858 1.849s-1.858-.828-1.858-1.849.832-1.849 1.858-1.849 1.858.828 1.858 1.849zM306.486 14.312c0 1.021-.832 1.849-1.858 1.849s-1.858-.828-1.858-1.849.832-1.849 1.858-1.849 1.858.828 1.858 1.849zM294.413 11.076c0 1.021-.832 1.849-1.858 1.849s-1.858-.828-1.858-1.849.832-1.849 1.858-1.849 1.858.828 1.858 1.849zM298.127 8.764c0 1.021-.832 1.849-1.858 1.849s-1.858-.828-1.858-1.849.832-1.849 1.858-1.849 1.858.828 1.858 1.849zM302.771 5.99c0 1.021-.832 1.849-1.858 1.849s-1.858-.828-1.858-1.849.832-1.849 1.858-1.849 1.858.828 1.858 1.849zM306.486 3.678c0 1.021-.832 1.849-1.858 1.849s-1.858-.828-1.858-1.849.832-1.849 1.858-1.849 1.858.828 1.858 1.849zM293.484 17.087c0 1.021-.832 1.849-1.858 1.849s-1.858-.828-1.858-1.849.832-1.849 1.858-1.849 1.858.828 1.858 1.849zM297.198 14.775c0 1.021-.832 1.849-1.858 1.849s-1.858-.828-1.858-1.849.832-1.849 1.858-1.849 1.858.828 1.858 1.849zM301.842 12.001c0 1.021-.832 1.849-1.858 1.849s-1.858-.828-1.858-1.849.832-1.849 1.858-1.849 1.858.828 1.858 1.849zM305.557 9.689c0 1.021-.832 1.849-1.858 1.849s-1.858-.828-1.858-1.849.832-1.849 1.858-1.849 1.858.828 1.858 1.849zM274.909 8.302c0 1.021-.728 1.849-1.625 1.849s-1.625-.828-1.625-1.849.728-1.849 1.625-1.849 1.625.828 1.625 1.849zM278.624 5.99c0 1.021-.728 1.849-1.625 1.849s-1.625-.828-1.625-1.849.728-1.849 1.625-1.849 1.625.828 1.625 1.849zM283.267 3.216c0 1.021-.728 1.849-1.625 1.849s-1.625-.828-1.625-1.849.728-1.849 1.625-1.849 1.625.828 1.625 1.849zM281.178 10.151c.898 0 1.625-.828 1.625-1.849s-.728-1.849-1.625-1.849-1.625.828-1.625 1.849.728 1.849 1.625 1.849zM3.715 27.362a1.856 1.856 0 1 1-3.712-.002 1.856 1.856 0 0 1 3.712.002zM7.43 25.043a1.856 1.856 0 1 1-3.712-.002 1.856 1.856 0 0 1 3.712.002zM12.074 22.261a1.856 1.856 0 1 1-3.712-.002 1.856 1.856 0 0 1 3.712.002zM15.789 19.942a1.856 1.856 0 1 1-3.712-.002 1.856 1.856 0 0 1 3.712.002zM26.005 28.29c0 1.025-.832 1.855-1.858 1.855s-1.858-.831-1.858-1.855c0-1.025.832-1.855 1.858-1.855s1.858.831 1.858 1.855zM29.72 25.971c0 1.025-.832 1.855-1.858 1.855s-1.858-.831-1.858-1.855c0-1.025.832-1.855 1.858-1.855s1.858.831 1.858 1.855zM34.364 23.188c0 1.025-.832 1.855-1.858 1.855s-1.858-.831-1.858-1.855c0-1.025.832-1.855 1.858-1.855s1.858.831 1.858 1.855zM38.079 20.87c0 1.025-.832 1.855-1.858 1.855s-1.858-.831-1.858-1.855c0-1.025.832-1.855 1.858-1.855s1.858.831 1.858 1.855zM34.364 26.899c0 1.025-.728 1.855-1.625 1.855s-1.625-.831-1.625-1.855c0-1.025.728-1.855 1.625-1.855s1.625.831 1.625 1.855z" style="fill:var(--color1, #f8d24e)"/><path fill="#f8d24e" d="M38.078 24.58c0 1.025-.728 1.855-1.625 1.855s-1.625-.831-1.625-1.855c0-1.025.728-1.855 1.625-1.855s1.625.831 1.625 1.855zM42.258 22.261c0 1.025-.728 1.855-1.625 1.855s-1.625-.831-1.625-1.855c0-1.025.728-1.855 1.625-1.855s1.625.831 1.625 1.855zM46.437 19.942c0 1.025-.728 1.855-1.625 1.855s-1.625-.831-1.625-1.855c0-1.025.728-1.855 1.625-1.855s1.625.831 1.625 1.855zM51.081 16.232c0 1.025-.728 1.855-1.625 1.855s-1.625-.831-1.625-1.855c0-1.025.728-1.855 1.625-1.855s1.625.831 1.625 1.855zM41.329 18.087c0 1.025-.728 1.855-1.625 1.855s-1.625-.831-1.625-1.855c0-1.025.728-1.855 1.625-1.855s1.625.831 1.625 1.855zM17.646 28.29a1.856 1.856 0 1 1-3.712-.002 1.856 1.856 0 0 1 3.712.002zM21.361 25.971a1.858 1.858 0 0 1-3.715 0c0-1.025.832-1.855 1.858-1.855s1.858.831 1.858 1.855zM26.005 23.188c0 1.025-.832 1.855-1.858 1.855s-1.858-.831-1.858-1.855c0-1.025.832-1.855 1.858-1.855s1.858.831 1.858 1.855zM29.72 20.87c0 1.025-.832 1.855-1.858 1.855s-1.858-.831-1.858-1.855c0-1.025.832-1.855 1.858-1.855s1.858.831 1.858 1.855zM10.216 27.826a1.856 1.856 0 1 1-3.712-.002 1.856 1.856 0 0 1 3.712.002zM13.931 25.507a1.856 1.856 0 1 1-3.712-.002 1.856 1.856 0 0 1 3.712.002zM18.575 22.725c0 1.025-.832 1.855-1.858 1.855a1.856 1.856 0 1 1 0-3.71c1.025 0 1.858.831 1.858 1.855zM22.29 20.406c0 1.025-.832 1.855-1.858 1.855s-1.858-.831-1.858-1.855c0-1.025.832-1.855 1.858-1.855s1.858.831 1.858 1.855z" style="fill:var(--color1, #f8d24e)"/></symbol></defs></svg>